<svg width="21" height="20" viewBox="0 0 21 20" fill="none" xmlns="http://www.w3.org/2000/svg">
<path d="M6.61835 16.2049L10.4708 13.8811L14.3233 16.2354L13.3143 11.8326L16.7082 8.89738L12.2442 8.4999L10.4708 4.34168L8.69747 8.46933L4.23349 8.86681L7.62734 11.8326L6.61835 16.2049ZM10.4708 16.7552L5.39535 19.8127C5.17113 19.9554 4.93672 20.0166 4.69212 19.9962C4.44752 19.9758 4.23349 19.8943 4.05004 19.7516C3.86659 19.6089 3.7239 19.4305 3.62199 19.2165C3.52007 19.0025 3.49968 18.763 3.56083 18.498L4.90614 12.7193L0.411589 8.83623C0.207755 8.65278 0.0803579 8.44385 0.0293992 8.20944C-0.0215594 7.97503 -0.00627183 7.74572 0.075262 7.5215C0.156796 7.29728 0.279097 7.11383 0.442164 6.97114C0.605232 6.82846 0.82945 6.73674 1.11482 6.69597L7.04641 6.17619L9.33955 0.733805C9.44147 0.489203 9.59944 0.305752 9.81346 0.183451C10.0275 0.0611504 10.2466 0 10.4708 0C10.695 0 10.9142 0.0611504 11.1282 0.183451C11.3422 0.305752 11.5002 0.489203 11.6021 0.733805L13.8953 6.17619L19.8268 6.69597C20.1122 6.73674 20.3364 6.82846 20.4995 6.97114C20.6626 7.11383 20.7849 7.29728 20.8664 7.5215C20.9479 7.74572 20.9632 7.97503 20.9123 8.20944C20.8613 8.44385 20.7339 8.65278 20.5301 8.83623L16.0355 12.7193L17.3808 18.498C17.442 18.763 17.4216 19.0025 17.3197 19.2165C17.2178 19.4305 17.0751 19.6089 16.8916 19.7516C16.7082 19.8943 16.4941 19.9758 16.2495 19.9962C16.0049 20.0166 15.7705 19.9554 15.5463 19.8127L10.4708 16.7552Z" fill="#5F370E"/>
</svg>
